<svg xmlns="http://www.w3.org/2000/svg" height="1024" preserveAspectRatio="none" style="display: block;" version="1.1" viewBox="0 0 2048 2048" width="1024">
<path d="M 799.848 171.481 C 832.053 170.33 868.057 170.972 900.456 170.839 C 976.671 170.51 1052.89 170.631 1129.1 171.203 L 1235.45 171.542 C 1253.88 171.477 1286.3 170.338 1303.56 172.217 C 1306.62 181.589 1304.77 312.168 1305.3 331.341 C 1306.53 375.468 1306.26 430.276 1307.11 475.621 C 1307.84 514.738 1306.65 557.309 1309.35 596.479 C 1319.86 575.072 1331.27 555.091 1342.16 534.069 L 1423.92 376.695 C 1437.53 350.247 1451.32 323.891 1465.28 297.627 C 1471.61 285.474 1481.59 263.054 1489.47 253.438 C 1494.04 253.12 1501.45 257.402 1505.75 259.719 C 1541.2 278.82 1576.75 297.72 1612.2 316.821 L 1789.78 412.125 L 1903.43 473.177 C 1920.9 482.667 1947.57 496.149 1963.23 506.863 C 1960.67 515.189 1944.76 545.355 1940.35 554.079 C 1918.3 597.748 1895.53 641.048 1872.05 683.963 L 1695.15 1015.58 L 1375.9 1616.93 C 1348.98 1668.08 1321.67 1719.02 1293.95 1769.74 C 1285.47 1785.64 1256.44 1843.21 1246.62 1854.04 C 1239.58 1854.86 1201.83 1831.24 1194.05 1826.72 L 1117 1782.18 C 1100.29 1772.81 1083.64 1763.31 1067.07 1753.7 C 1057.44 1748.02 1040.28 1737.12 1030.78 1733.12 L 878.179 1813.97 C 862.857 1822.05 813.313 1852.28 799.456 1852.39 C 791.922 1842.93 780.294 1819.26 774.187 1807.42 C 761.943 1783.44 749.565 1759.52 737.055 1735.67 L 583.711 1445.46 L 233.832 784.982 C 196.883 714.803 157.75 645.265 120.904 575.027 C 109.161 552.641 95.2486 528.952 85.0597 506.09 C 98.0508 496.545 125.826 483.774 140.764 475.644 C 168.157 460.737 196.478 446.359 223.855 431.499 C 307.387 385.371 391.296 339.93 475.575 295.18 C 492.006 286.291 508.377 277.291 524.687 268.182 C 533.342 263.392 548.76 254.091 557.73 251.653 C 564.506 261.924 571.985 277.294 578.054 288.468 L 616.952 360.815 C 632.577 390.106 785.049 674.532 791.454 678.157 C 794.177 671.602 792.954 527.804 793.001 510.14 L 794.147 254.097 C 794.262 231.599 794.041 198.265 795.074 174.913 C 795.17 172.745 798 172.162 799.848 171.481 z M 870.473 185.803 C 870.376 462.169 872.03 738.533 875.436 1014.88 L 875.568 1232.28 C 875.664 1265.49 875.237 1301.91 876.758 1334.76 L 1177.25 1335.51 C 1191.05 1335.53 1206.48 1335.88 1220.18 1335.48 C 1221.68 1250 1220.28 1160.52 1220.1 1074.77 C 1219.81 930.389 1220.27 786.01 1221.47 641.637 L 1223.24 359.668 C 1223.79 320.985 1224.08 282.3 1224.11 243.613 C 1224.2 228.048 1225.42 199.474 1224 185.034 C 1121.28 185.633 1017.44 184.13 914.954 185.5 C 900.443 185.549 884.94 185.367 870.473 185.803 z M 786.481 1624.62 C 786.859 1613.15 788.693 1559.59 785.334 1551.41 C 769.566 1513 741.448 1471.25 722.464 1433.49 C 715.38 1419.4 717.975 1426.42 720.18 1414.47 L 718.957 1413.48 C 710.94 1411.72 706.433 1409.84 702.127 1402.51 C 693.867 1388.45 686.023 1373.68 678.191 1359.39 L 635.237 1281.56 C 628.139 1268.59 620.923 1255.69 613.59 1242.85 C 609.249 1235.36 600.498 1221.07 597.338 1213.38 C 596.137 1210.42 595.832 1207.16 596.461 1204.02 C 598.123 1195.41 603.91 1192.95 608.59 1187.26 C 605.222 1182.96 600.805 1185.94 595.571 1186.19 C 590.268 1183.46 582.197 1179.25 578.957 1174.27 C 571.509 1162.82 564.925 1149.67 558.143 1137.73 C 539.944 1106.08 522.209 1074.16 504.946 1041.99 C 494.662 1023.22 481.267 1000.68 472.403 981.198 C 471.175 978.499 472.259 972.297 473.445 969.325 C 484.592 957.922 524.885 937.668 541.18 928.795 L 615.026 888.565 C 647.642 870.926 679.882 852.33 713.167 836.147 C 723.633 831.059 737.879 830.515 745.263 840.307 C 761.574 861.936 775.157 888.389 788.924 911.671 C 789.299 892.992 789.316 874.589 790.6 855.947 C 752.973 795.361 721.726 733.802 688.229 670.902 C 634.469 569.954 582.87 467.878 529.965 366.484 C 519.736 346.878 508.543 316.696 495.962 299.618 L 287.844 412.666 C 247.313 434.689 199.856 459.107 160.523 482.233 C 374.574 860.047 583.248 1240.88 786.481 1624.62 z M 1312.04 821.542 C 1319.27 824.729 1326.41 828.126 1333.45 831.731 L 1335.67 830.519 L 1334.41 829.189 C 1326.42 820.828 1315.57 813.268 1316.67 800.169 C 1318.17 782.23 1333.5 761.794 1342 746.453 C 1360.22 713.56 1377.99 681.035 1396.72 648.484 C 1405.17 634.021 1412.25 617.4 1424.11 605.452 C 1429.91 599.61 1439.37 604.74 1445.87 607.028 C 1459.6 613.441 1472.93 620.988 1486.54 627.781 C 1526.24 647.224 1565.44 667.698 1604.08 689.183 L 1655.41 717.348 C 1677.39 729.44 1707.14 739.649 1690.5 770.911 C 1662.13 824.235 1632.32 876.85 1603.3 929.825 C 1582.4 968.015 1528.78 931.32 1502.34 917.452 C 1482.3 906.843 1462.18 896.381 1441.98 886.067 C 1436.37 883.217 1420.28 874.617 1414.86 873.653 L 1414.82 875.233 C 1427.53 881.766 1442.94 891.135 1455.88 898.347 C 1484.91 914.307 1513.75 930.617 1542.38 947.273 C 1552.43 953.181 1564.82 960.146 1567.65 972.378 C 1569.1 978.649 1568.84 985.619 1566.54 991.655 C 1560.2 1008.27 1544.86 1031.36 1535.87 1047.72 C 1516.28 1083.35 1497.78 1119.96 1476.82 1154.82 C 1470.2 1165.82 1458.27 1169.23 1445.85 1167.76 C 1428.94 1165.76 1356.42 1127.5 1335.04 1117.22 C 1330.66 1115.11 1320.23 1108.83 1315.55 1110.02 C 1319.34 1118.44 1419.34 1167.8 1433.4 1178.56 C 1445.22 1187.62 1453.53 1201.2 1445.66 1216.48 C 1418.74 1268.7 1391.78 1322.73 1359.64 1371.81 C 1356.71 1376.29 1340.65 1375.77 1335.74 1377.85 C 1340.36 1390.11 1343.47 1398.7 1332.43 1410.28 C 1328.07 1414.86 1322.63 1415.63 1316.54 1415.34 C 1316.46 1447.07 1316.63 1478.8 1317.03 1510.53 C 1348.54 1460.46 1370.31 1409.97 1398.45 1359.98 L 1667.19 873.572 C 1706.92 800.324 1747.45 727.516 1788.79 655.162 C 1799.4 636.792 1809.94 618.088 1820.65 599.827 C 1843.76 560.429 1868.02 521.285 1886.38 479.371 C 1849.2 457.922 1810.91 438.704 1773.29 418.082 C 1700.29 378.069 1624.97 341.169 1552.65 300.051 C 1545.87 314.195 1535.89 329.694 1528.41 344.514 C 1478.51 442.802 1427.12 540.326 1374.25 637.052 C 1359.51 664.637 1345.07 692.006 1331.35 720.081 C 1327.92 727.104 1314.05 748.994 1313.3 754.831 C 1310.88 773.561 1311.98 802.328 1312.04 821.542 z M 953.878 1593.55 L 1103.54 1596.05 C 1126.25 1596.38 1149.02 1597.05 1171.72 1596.8 C 1187.12 1596.63 1187.49 1581.89 1187.46 1570.19 L 1186.13 1446.37 C 1186.04 1424.67 1186.47 1402.87 1185.8 1381.21 C 1185.4 1368.3 1168.11 1369.78 1159.19 1369.85 C 1149.81 1369.92 1140.35 1370.26 1130.98 1370.5 C 1080.09 1371.13 1029.2 1371.32 978.311 1371.07 C 967.689 1371.06 903.023 1369.44 898.659 1373.81 C 894.823 1385.85 898.334 1459.73 897.603 1478.5 C 896.991 1494.19 895.39 1581.11 899.4 1590.42 C 907.506 1595.1 942.033 1593.29 953.878 1593.55 z M 1582.86 938.969 C 1595 933.651 1604.64 909.774 1611.15 897.571 L 1644.42 835.058 L 1670.06 787.317 C 1673.53 780.871 1687.57 758.75 1683.57 752.694 C 1676.77 742.405 1654.04 733.008 1642.46 726.774 L 1572.73 688.968 C 1543.41 673.385 1513.95 658.048 1484.37 642.958 C 1469.21 635.034 1449.62 623.562 1434.65 617.043 C 1424.78 633.831 1333.03 796.241 1333.42 801.485 C 1333.91 808.005 1348.05 814.82 1353.12 817.595 C 1409.36 847.732 1465.81 877.464 1522.48 906.787 C 1534.67 913.137 1546.72 919.749 1558.62 926.62 C 1565.69 930.768 1575.12 937.942 1582.86 938.969 z M 483.72 974.897 C 488.598 986.065 495.422 996.822 501.32 1007.54 C 525.385 1051.27 550.873 1094.61 574.419 1138.59 C 579.789 1148.69 584.29 1157.06 591.537 1166.06 C 602.927 1163.81 619.886 1153.85 630.484 1147.98 C 682.818 1118.99 735.856 1091.61 788.772 1063.79 C 788.925 1020.14 788.303 974.693 789.028 931.29 C 776.012 912.011 764.86 890.521 752.662 870.658 C 747.759 862.674 743.573 854.132 738.379 846.329 C 735.967 842.581 732.835 842.949 728.876 843.011 C 718.166 845.962 700.143 856.881 689.612 862.669 L 635.987 891.999 L 537.263 945.542 C 522.67 953.423 496.918 966.134 483.72 974.897 z M 1315.55 1087.94 C 1361.05 1111.06 1407.95 1130.6 1451.4 1158.23 C 1453.19 1159.37 1460.07 1159.72 1461.5 1158.61 C 1475.82 1147.53 1490.24 1113.81 1498.71 1098.53 L 1533.77 1035.04 C 1541.72 1020.97 1550.48 1006.72 1557.51 992.222 C 1563.74 979.377 1563.7 973.916 1551.31 966.86 C 1531.21 955.418 1510.6 945.166 1490.19 934.366 L 1375.21 873.506 C 1357.84 864.418 1331.7 851.819 1315.09 841.54 L 1315.29 1003.85 C 1315.34 1029.92 1314.55 1062.39 1315.55 1087.94 z M 896.07 1353.22 C 889.694 1351.49 878.788 1351.49 871.826 1351.22 L 871.819 1593.89 L 871.613 1652.82 C 871.494 1664.07 870.47 1686.9 872.606 1696.95 C 886.321 1700.45 949.411 1697.86 965.968 1697.5 L 1121.6 1694.49 L 1185.36 1693.61 C 1195.13 1693.46 1212.06 1693.64 1220.94 1692.19 L 1220.83 1349.94 C 1161.97 1348.78 1096.99 1351.47 1037.6 1352.17 C 1031.86 1351.34 1029.31 1351.7 1023.66 1352.16 C 1019.96 1352.49 1016.94 1352.66 1013.37 1353.77 C 1024.52 1354.09 1035.04 1353.96 1046.18 1353.79 C 1073.7 1354.57 1101.1 1353.51 1128.96 1354.11 C 1145.14 1354.46 1176.35 1350.9 1189.33 1362.27 C 1197.94 1369.8 1199.61 1381.07 1199.63 1392.08 C 1199.73 1454.24 1200.96 1516.85 1197.53 1578.91 C 1196.91 1590.09 1184.89 1605.05 1173.12 1606.33 C 1152.52 1608.58 1131.06 1607.96 1110.17 1608.38 L 957.008 1610.85 C 949.284 1610.97 935.09 1610.78 928.287 1611.17 C 881.216 1613.88 877.731 1603.08 879.074 1558.46 C 879.429 1546.66 879.108 1528.46 879.108 1515.65 L 878.666 1386.84 C 878.713 1378.72 879.776 1366.16 886.742 1360.71 C 890.107 1358.08 893.076 1356.41 896.07 1353.22 z M 609.124 1205.4 C 613.052 1215.57 619.341 1225.9 624.768 1235.39 C 642.69 1266.76 661.801 1297.67 678.715 1329.6 C 684.409 1339.73 708.16 1385.42 714.752 1390.89 C 720.766 1392.38 730.884 1387.95 736.249 1384.87 C 751.634 1376.04 772.966 1368.71 787.478 1359.07 L 788.147 1185.18 C 788.222 1174 789.203 1114.73 787.859 1108.06 C 760.709 1119.95 732.77 1138 706.213 1151.79 C 683.557 1163.56 660.604 1175.54 638.325 1187.95 C 630.806 1192.14 615.731 1200.35 609.124 1205.4 z M 1315.97 1367.3 C 1324.18 1369.7 1327.52 1370.75 1334.87 1375.71 C 1352.91 1375.26 1356.35 1367.57 1364.42 1352.15 C 1369.69 1342.08 1374.71 1331.5 1380.33 1321.64 C 1394.64 1296.09 1408.66 1270.38 1422.38 1244.52 C 1427.65 1234.48 1441.8 1211.36 1440.58 1200.33 C 1439.7 1192.35 1416.14 1181.62 1409.68 1177.64 C 1395.75 1171.15 1331.38 1134.25 1320.76 1131.99 C 1319.26 1132.65 1316.46 1133.45 1316.4 1134.58 C 1315.43 1153.99 1315.93 1180.11 1315.96 1199.16 L 1315.97 1367.3 z M 834.848 1723.48 C 846.881 1745.25 858.984 1769.57 870.316 1791.79 C 876.879 1789 882.288 1786.48 888.671 1783.29 C 926.843 1763.71 964.688 1743.51 1002.19 1722.68 C 984.3 1721.2 958.091 1722.21 939.608 1722.51 C 917.719 1722.86 895.827 1723.04 873.934 1723.06 C 861.737 1723.1 846.729 1722.69 834.848 1723.48 z M 1176.96 1787.55 C 1185.58 1779.22 1187.53 1776.01 1193.05 1765.29 C 1201.46 1749.66 1209.72 1735.98 1218.2 1720.81 C 1190.61 1720.53 1162.44 1721.5 1134.71 1721.43 C 1113.91 1721.37 1087.72 1720.24 1067.02 1721.41 L 1061.4 1722.42 C 1063.72 1725.27 1168.52 1784.23 1176.96 1787.55 z M 733.352 1426.13 C 747.417 1447.21 756.368 1462.95 768.21 1485.55 C 773.73 1496.55 779.3 1508.67 786.792 1518.36 C 787.724 1492.02 786.636 1464.33 786.841 1437.89 C 786.884 1432.22 786.959 1404.22 785.837 1400.08 C 770.024 1408.13 749.328 1419.42 733.352 1426.13 z M 1875.46 528.1 C 1883.96 534.418 1913.33 550.75 1922.55 552.54 C 1929.57 543.262 1942.01 520.676 1945.52 509.788 C 1931.05 501.896 1913.36 492.917 1898.35 486.292 C 1892.09 496.674 1878.82 517.404 1875.46 528.1 z M 1447.92 360.496 C 1462.8 368.428 1476.59 375.976 1491.94 382.997 C 1499.08 371.582 1509.9 351.005 1513.95 338.22 C 1503.25 331.447 1483.25 319.726 1471.72 315.66 C 1465.8 324.014 1450.57 351.221 1447.92 360.496 z M 103.126 510.755 C 107.279 518.502 121.74 548.693 126.223 552.071 C 141.348 543.769 156.396 535.326 171.365 526.745 C 168.93 520.348 155.043 490.635 150.885 487.08 L 148.157 486.611 C 132.92 495.894 118.177 502.308 103.126 510.755 z M 1845.53 583.331 C 1853.37 589.291 1881.07 604.889 1890.21 607.349 C 1895.24 600.318 1909.18 573.005 1912.44 564.56 C 1902.08 559.334 1876.99 545.612 1867.63 542.43 C 1862.47 550.745 1848.78 574.784 1845.53 583.331 z M 159.659 608.95 C 170.364 605.844 191.4 593.051 201.554 586.698 C 196.699 577.464 183.713 551.066 177.53 545.217 L 175.783 544.837 C 167.224 549.103 142.455 561.673 135.934 566.824 C 135.41 571.155 155.757 607.296 159.659 608.95 z M 532.102 337.815 C 535.956 345.979 548.665 373.681 555.07 377.729 L 557.488 377.078 C 568.591 371.589 587.853 362.5 597.645 355.418 C 595.243 345.687 582.387 315.9 571.915 314.724 C 562.322 320.328 539.698 332.276 532.102 337.815 z M 1282.25 232.388 C 1284.01 232.031 1286.17 232.041 1286.55 230.856 C 1289.79 220.837 1288.11 194.594 1287.93 184.702 C 1274.03 183.851 1258.23 184.293 1244.15 184.404 L 1237.97 185.13 C 1235.54 188.793 1235.95 229.224 1240.08 231.438 C 1244.33 233.713 1275.67 232.34 1282.25 232.388 z M 614.177 1462.93 C 618.459 1472.1 631.79 1497.33 638.074 1504.82 C 649.78 1500.48 668.248 1491.45 679.385 1485.12 C 676.96 1479.02 661.308 1446.63 657.669 1443.22 C 648.344 1446.38 623.261 1457.94 614.177 1462.93 z M 208.703 700.759 C 211.351 708.88 225.537 737.225 231.187 741.972 C 241.739 739.48 263.141 726.554 272.862 720.606 C 269.986 713.693 256.309 684.791 251.286 681.132 L 249.831 680.834 C 236.71 687.087 221.365 693.979 208.703 700.759 z M 853.881 233.666 C 856.284 231.995 858.387 230.431 858.504 226.96 C 858.887 215.673 859.38 197.347 858.609 186.61 C 846.366 185.842 828.791 185.781 816.366 186.349 C 814.957 186.633 811.976 186.787 811.454 188.039 C 808.375 195.432 808.57 228.881 813.831 232.882 C 817.317 235.533 847.842 234.076 853.881 233.666 z M 592.612 450.402 C 601.472 447.968 625.482 435.546 632.15 429.565 C 634.655 423.772 617.97 392.599 613.631 388.281 C 605.165 392.149 577.041 404.034 572.161 409.634 C 571.949 414.014 589.207 446.41 592.612 450.402 z M 1259.25 309.858 C 1265.92 309.766 1281.04 310.675 1285.49 306.929 C 1288.59 297.918 1287.77 272.571 1286.66 262.636 C 1280.3 262.352 1275.6 262.227 1269.24 262.467 C 1261.44 262.518 1247.74 262.04 1240.88 264.094 C 1236.54 268.572 1236.79 303.679 1240.02 308.556 C 1245.16 310.872 1253.38 310.045 1259.25 309.858 z M 172.689 634.814 C 176.335 642.442 188.872 671.463 194.892 675.094 C 209.538 668.583 223.02 659.939 237.594 653.375 C 234.572 647.081 219.888 614.123 214.972 612.839 C 201.049 620.675 187.298 628.287 172.689 634.814 z M 1414.03 428.62 C 1422.01 433.43 1448.3 450.769 1455.87 448.606 C 1463.83 436.655 1470.7 422.159 1476.34 408.86 C 1465.82 399.983 1447.46 393.028 1434.43 387.643 C 1428.21 398.713 1419.4 416.752 1414.03 428.62 z M 271.346 816.563 C 274.802 823.892 289.592 854.461 295.002 857.994 C 305.32 853.898 325.029 843.963 334.415 838.028 C 331.4 829.7 317.685 799.778 311.015 795.853 C 297.644 801.92 284.487 809.916 271.346 816.563 z M 843.966 1518.82 C 847.625 1518.38 850.025 1518.75 852.552 1516.89 C 853.43 1508.49 853.801 1478.64 851.339 1471.23 C 842.713 1468.58 823.36 1469.93 813.641 1470.2 C 810.754 1470.96 808.249 1471.13 806.321 1472.96 C 805.644 1480.25 804.705 1511.77 807.262 1517.41 C 814.559 1519.72 834.434 1518.27 843.966 1518.82 z M 848.251 1597.18 L 851.544 1596.44 C 854.434 1591.14 853.736 1559.16 853.491 1551.81 C 839.864 1549.74 824.946 1549.85 811.118 1550.49 C 801.101 1553.34 805.916 1567.27 804.703 1576.07 C 804.052 1580.79 804.888 1592.05 807.518 1596.1 C 814.4 1599.12 839.37 1597.45 848.251 1597.18 z M 1283.02 388.287 C 1288.37 383.619 1287.97 348.236 1283.72 343.01 C 1281.6 340.402 1246.4 342.161 1241.78 342.282 C 1234.97 347.764 1236.07 384.611 1240.03 386.993 C 1244.95 389.95 1275.76 388.321 1283.02 388.287 z M 1377.81 498.831 C 1387.18 504.904 1407.7 514.672 1418.19 518.978 C 1423.66 512.195 1436.91 485.753 1439.86 477.668 C 1430.44 471.897 1407.94 460.606 1397.65 458.07 C 1391.5 468.566 1381.12 487.245 1377.81 498.831 z M 608.161 477.396 C 611.321 485.135 624.041 511.568 629.338 516.774 L 630.519 517.046 C 645.746 511.561 658.696 504.588 672.631 496.521 C 668.004 486.996 658.118 466.444 650.872 459.595 L 648.805 459.077 C 636.87 462.168 619.535 471.518 608.161 477.396 z M 1810.53 652.019 C 1822.38 658.428 1838.7 668.303 1849.97 674.023 C 1857.85 665.753 1868.3 643.526 1872.74 632.52 C 1864.46 626.364 1842.98 615.936 1833.02 610.901 C 1825.87 622.424 1815.21 639.639 1810.53 652.019 z M 1243.4 1099.16 C 1240.3 1106.61 1236.58 1139.48 1248.49 1141.86 C 1258.73 1143.91 1272.51 1142.22 1283.67 1142.56 C 1288.81 1136.78 1286.73 1107.79 1285.85 1098.76 L 1243.4 1099.16 z M 1268.91 1750.26 L 1273.47 1744.77 C 1278.27 1736.74 1282 1730.6 1284.49 1721.47 C 1267.98 1720.37 1251.05 1721.69 1235.4 1720.59 L 1229.98 1731.75 C 1243.07 1737.68 1256.05 1743.85 1268.91 1750.26 z M 1738.42 881.079 C 1725.27 873.469 1713.4 866.052 1698.7 861.691 C 1692.51 872.835 1684.6 886.68 1680.28 898.53 C 1687.32 903.056 1711.98 918.278 1719.47 916.586 C 1725.27 908.364 1734.86 890.621 1738.42 881.079 z M 1279.66 694.24 C 1282.28 692.742 1283.42 692.851 1284.05 689.794 C 1285.85 680.97 1286.04 662.83 1283.02 654.698 C 1277.93 648.956 1253.07 651.062 1245.02 651.239 C 1242.12 653.303 1240.35 654.494 1239.85 658.417 C 1238.81 666.421 1237.34 684.547 1241.38 691.251 C 1244.22 695.971 1274.15 694.288 1279.66 694.24 z M 1329.04 1541.79 C 1336.45 1547.71 1360.46 1563.79 1369.46 1563.85 C 1374.95 1553.81 1384.49 1537.34 1388.48 1527.32 C 1376.58 1521.34 1360.16 1513.2 1348.01 1508.23 C 1341.31 1515.68 1333.35 1532.18 1329.04 1541.79 z M 851.317 990.842 C 856.284 985.424 854.946 964.376 854.569 956.54 C 854.422 953.455 854.097 950.381 853.597 947.334 C 840.506 946.889 823.862 946.746 810.756 947.423 C 807.189 953.182 806.531 985.733 810.239 990.592 C 817.552 994.06 843.099 992.509 851.317 990.842 z M 1255.11 950.488 C 1250.72 950.664 1247.41 950.363 1243.54 952.304 C 1238.86 958.563 1239.75 985.228 1244.38 992.101 C 1250.46 995.395 1264.75 994.154 1272.25 994.017 C 1276.49 993.802 1279.67 994.044 1283.44 992.162 C 1286.85 986.395 1285.72 958.386 1284.85 950.728 C 1274.47 950.122 1265.45 950.302 1255.11 950.488 z M 852.573 1320.4 C 839.432 1319.52 823.34 1319.77 810.158 1320.53 C 804.294 1324.06 806.053 1358.69 807.034 1365.82 C 820.653 1365.56 834.539 1364.9 848.109 1364.98 L 851.045 1363.79 C 853.396 1357.93 852.846 1327.89 852.573 1320.4 z M 1437.25 1346.38 C 1445.64 1352.02 1467.85 1364.27 1477.03 1367.43 C 1481.76 1360.85 1494.96 1340.28 1495.32 1332.73 C 1491.54 1327.51 1462.55 1313.24 1456.26 1311.55 C 1448.15 1323.93 1442.61 1332.42 1437.25 1346.38 z M 341.128 859.923 C 330.016 864.865 316.302 870.573 305.936 876.56 C 308.16 884.632 319.25 909.037 324.855 914.289 L 327.296 913.838 C 340.092 908.6 352.466 901.97 365.102 897.146 C 361.675 888.249 351.591 866.802 345.197 860.386 C 342.84 859.65 343.7 859.76 341.128 859.923 z M 1636 1075 C 1624.8 1066.37 1608.02 1058.09 1594.68 1053.49 C 1590.5 1061.81 1579.28 1080.91 1578.91 1089.02 C 1580.81 1093.46 1611.65 1109.99 1616.88 1108.5 L 1617.82 1107.66 C 1624.66 1097.22 1630.73 1086.31 1636 1075 z M 851.548 771.863 C 855.915 767.375 856.339 733.29 852.824 729.255 C 844.235 726.688 822.694 727.672 813.042 728.308 C 808.626 734.686 810.022 762.912 811.197 770.958 C 822.496 772.105 839.996 772.171 851.548 771.863 z M 1686.67 980.1 C 1691.45 975.08 1705.92 948.597 1704.28 942.333 C 1697.79 937.152 1675.9 927.59 1667.22 923.829 C 1659.84 936.209 1639.36 960.553 1659.24 967.55 C 1668.25 970.721 1677.51 976.984 1686.67 980.1 z M 1279.25 1364.19 C 1280.78 1363.97 1283.06 1364.13 1283.83 1362.81 C 1288.08 1355.56 1288.42 1329.32 1284.88 1322.77 C 1278.09 1319.43 1258.86 1321.16 1250.47 1321.48 C 1247.76 1321.98 1244.8 1322.25 1243.29 1324.73 C 1238.71 1332.25 1241.19 1355.73 1242.22 1364.15 L 1279.25 1364.19 z M 1279.01 771.7 C 1281.55 770.008 1283.48 768.767 1283.85 765.16 C 1284.72 756.536 1285.88 738.351 1283.6 730.5 C 1278.94 726.215 1253.04 728.032 1245.08 728.222 C 1239.98 732.391 1240.25 734.519 1239.53 740.937 C 1238.93 746.359 1237.77 765.869 1241.87 769.348 C 1246.07 772.901 1272.37 771.448 1279.01 771.7 z M 1796.75 677.389 C 1783.44 704.792 1760.69 715.664 1799.1 731.782 C 1805.54 734.482 1809.18 737.556 1816.79 739.501 C 1823.13 729.343 1832.4 710.321 1837.59 699.102 C 1826.98 693.237 1807.05 681.328 1796.75 677.389 z M 1253.95 1784.88 C 1239.23 1778.46 1226.62 1770.79 1212.94 1764.69 C 1208.61 1771.47 1195.68 1790.77 1195.78 1798.17 C 1200.07 1804.95 1227.37 1820.33 1234.88 1819.43 C 1241.11 1810.38 1248.9 1794.87 1253.95 1784.88 z M 1581.75 1173.08 C 1588.34 1163.88 1598.19 1146.35 1602.91 1135.88 C 1596.05 1130.84 1570.52 1117.66 1562.7 1115.12 C 1556.54 1125.75 1547.12 1141.32 1542.49 1152.44 C 1550.68 1157.46 1572.9 1169.36 1581.75 1173.08 z M 852.373 1436.96 C 852.522 1423.27 852.571 1409.58 852.521 1395.89 C 841.515 1395.21 833.127 1395.28 822.17 1395.5 C 817.092 1395.85 813.992 1395.71 809.302 1397.73 C 805.898 1402.31 807.147 1431.17 809.507 1436.91 C 817.101 1439.17 831.691 1437.96 840.25 1438.01 C 844.297 1437.72 848.351 1437.48 852.373 1436.96 z M 852.368 915.146 C 855.2 905.018 854.059 886.178 853.722 875.105 C 838.892 874.346 824.033 874.339 809.203 875.085 C 807.399 881.282 806.906 907.303 809.077 913.119 C 813.39 918.194 845.29 916.354 852.368 915.146 z M 1245.11 875.092 C 1239.98 883.265 1237.2 910.168 1247.27 914.685 C 1254.43 917.891 1273.19 915.86 1282.04 915.976 C 1287.29 912.769 1285.62 882.479 1283.4 876.924 C 1281.98 873.339 1249.39 875.007 1245.11 875.092 z M 1311.01 650.671 C 1310.94 654.166 1311.23 667.233 1310.68 669.96 C 1307.48 686.046 1316.57 719.375 1330.51 687.251 C 1333.43 681.03 1338.89 670.231 1341.07 664.118 C 1331.67 659.471 1320.87 653.789 1311.01 650.671 z M 640.983 1414.29 C 636.783 1407.69 623.145 1380.66 619.565 1378.16 C 608.276 1381.71 588.457 1392.21 577.482 1397.81 C 580.625 1407.18 593.028 1427.11 599.56 1434.49 C 608.257 1432.5 633.739 1419.98 640.983 1414.29 z M 1283.76 1517.29 C 1284.29 1516.65 1284.82 1516.01 1285.35 1515.37 C 1285.69 1502.63 1284.98 1489.87 1285.01 1477.12 C 1273.55 1475.21 1254.38 1476.03 1242.34 1476.41 C 1238.75 1482.13 1237.81 1511.65 1242.35 1516.07 C 1250.4 1518.89 1274.9 1518.3 1283.76 1517.29 z M 649.121 1531.28 C 658.065 1544.91 663.679 1558.76 671.702 1571.22 C 679.556 1567.09 705.448 1553.73 713.139 1551.01 C 709.955 1542.12 699.111 1519.85 692.849 1513.28 L 690.235 1512.8 C 676.705 1519.18 662.213 1524.99 649.121 1531.28 z M 809.703 1027.08 C 806.747 1033.89 806.639 1060.49 808.609 1066.4 C 815.076 1071.29 841.19 1068.48 849.88 1067.53 C 855.295 1062.85 853.121 1035.72 852.118 1028.11 C 837.937 1026.53 823.951 1026.8 809.703 1027.08 z M 1353.05 1590.58 C 1344.83 1586.22 1325.08 1575.81 1316.95 1573.04 L 1316.76 1617.02 C 1322.37 1619.88 1329.36 1623.71 1335.14 1625.68 C 1339.14 1620.92 1340.02 1619.65 1342.94 1614.16 C 1345.65 1608.06 1351.04 1596.75 1353.05 1590.58 z M 1284.76 798.686 C 1273.42 796.681 1260.04 797.318 1248.35 797.469 C 1246.29 798.182 1242.63 798.915 1242 801.308 C 1239.54 810.672 1236.74 833.017 1245.19 839.385 C 1251.61 840.998 1269.47 840.035 1277.12 839.87 C 1279.38 839.205 1282.8 838.451 1283.59 836.214 C 1286.9 826.82 1285.01 808.9 1284.76 798.686 z M 853.026 1177.08 C 841.774 1176.3 824.995 1176.76 813.496 1177.4 L 810.643 1178.53 C 808.153 1184.33 806.874 1210.16 812.66 1212.14 C 818.089 1213.99 841.432 1212.85 847.75 1212.41 L 851.305 1211.8 C 854.334 1206.92 853.088 1184.48 853.026 1177.08 z M 532.275 1303.48 C 547.234 1298.25 556.729 1293.98 570.673 1286.6 C 567.81 1279.15 556.54 1256.14 551.089 1251.12 L 550.274 1250.87 C 537.349 1256.05 523.882 1261.7 512.046 1269.09 C 515.071 1275.3 527.354 1301.2 532.275 1303.48 z M 544.228 1332.34 C 547.073 1338.81 559.399 1364.09 564.431 1367.34 L 564.773 1367.38 C 573.24 1364.31 595.306 1356.46 601.008 1350.23 C 601.167 1343.29 589.264 1320.71 584.308 1315.36 L 582.465 1314.76 C 569.596 1320.34 556.847 1326.21 544.228 1332.34 z M 716.513 1655.34 C 720.285 1664.08 732.03 1687.95 738.207 1694.12 C 748.221 1691.52 770.896 1680.38 779.889 1674.47 C 776.754 1665.89 767.808 1645.24 761.326 1639.24 L 758.252 1638.91 C 744.537 1644.24 730.01 1649.63 716.513 1655.34 z M 1241.33 1635.98 C 1237.23 1679.46 1237.9 1673.2 1274.46 1675.57 C 1277.34 1675.35 1281.45 1675.45 1283.11 1673.09 C 1288.48 1665.44 1285.91 1645.88 1285.98 1635.81 C 1274.34 1635.23 1263.06 1635.41 1251.42 1635.51 L 1241.33 1635.98 z M 1283.24 1068.44 C 1285.98 1064.63 1285 1032.59 1284.15 1027.03 C 1270.66 1027 1256.62 1026.77 1243.21 1027.43 C 1239.64 1034.35 1237.57 1064.39 1247.34 1067.71 C 1256.04 1070.68 1273.29 1068.78 1283.24 1068.44 z M 468.483 1092.12 C 465.498 1081.52 456.564 1061.76 449.728 1053.29 L 447.514 1052.71 C 427.651 1062.53 398.211 1067.47 418.277 1093.55 C 420.971 1097.06 425.795 1110.86 430.48 1110.16 C 442.211 1104.87 457.399 1098.37 468.483 1092.12 z M 1286.54 1399.16 C 1272.25 1398.89 1257.96 1398.92 1243.67 1399.22 C 1238.77 1404.24 1239.41 1438.22 1242.56 1440.41 C 1246.99 1443.49 1277.3 1442.27 1283.77 1441.34 C 1288.9 1437.35 1287.27 1406.46 1286.54 1399.16 z M 750.133 1721.33 C 753.937 1728.92 764.771 1751.52 770.424 1756.26 L 772.408 1755.63 L 773.576 1754.87 C 784.254 1748.09 806.815 1742.64 810.049 1732.39 C 810.827 1729.92 808.159 1725.08 806.996 1724.43 C 796.881 1718.8 794.97 1723.32 792.106 1708.87 L 790.492 1707.1 L 787.139 1706.96 C 775.837 1710.65 761.181 1716.51 750.133 1721.33 z M 787.243 1087.19 C 768.995 1096.51 619.93 1174.41 616.169 1180.48 L 617.484 1183.51 C 628.629 1178.3 785.154 1096.91 787.852 1093.76 C 788.528 1090.69 788.366 1090.79 787.74 1087.65 L 787.243 1087.19 z M 784.69 785.753 C 779.214 788.662 775.784 790.678 770.587 794.103 C 774.232 800.89 777.936 808.071 781.973 814.591 C 784.354 818.281 784.076 819.428 787.233 820.279 C 790.772 816.128 789.753 792.105 787.526 787.428 L 784.69 785.753 z M 441.432 1135.9 C 445.868 1146.06 455.912 1165.33 462.437 1174.05 C 473.798 1169.63 491.381 1161.07 501.866 1154.97 C 500.444 1148.48 486.726 1120.5 482.896 1117.07 L 482.31 1116.87 C 471.079 1121.64 451.809 1130.03 441.432 1135.9 z M 778.818 720.876 C 769.375 725 756.468 730.742 748 736.528 C 751.31 744.495 756.096 756.279 761.234 763.092 C 771.772 759.206 779.095 755.98 788.476 749.715 C 788.614 740.21 791.217 723.041 778.818 720.876 z M 850.007 1141.82 C 856.488 1135.31 853.913 1107.93 853.996 1097.41 C 840.828 1096.72 823.686 1096.6 810.466 1097.36 C 806.208 1101.66 806.547 1135.03 810.355 1140.6 C 819.723 1144.54 839.237 1142.74 850.007 1141.82 z M 683.768 527.145 C 673.733 530.221 654.344 540.007 645.988 546.278 C 649.482 554.824 653.323 565.216 659.127 572.379 L 661.283 573.038 C 669.814 569.785 691.458 561.446 697.315 555.023 C 697.44 549.402 688.411 529.858 683.768 527.145 z M 854.941 692.497 C 855.016 678.932 855.382 664.098 855.037 650.636 C 842.464 648.26 833.051 648.889 820.21 649.519 C 816.576 650.176 814.08 650.139 811.565 652.716 C 810.049 661.005 810.099 683.792 811.98 691.8 C 815.935 695.531 837.904 694.111 844.672 693.992 L 854.941 692.497 z M 847.71 1638.27 C 837.245 1638.26 824.594 1637.95 814.324 1638.4 C 812.744 1638.88 810.43 1639.12 809.474 1640.56 C 807.104 1644.14 806.168 1670.21 810.294 1671.55 C 818.995 1674.38 834.336 1673.2 844.242 1673.05 C 846.197 1672.33 847.295 1672.44 847.88 1670.91 C 850.394 1664.36 849.193 1644.87 847.71 1638.27 z M 1333.11 586.523 C 1327.18 597.451 1321.33 608.418 1315.55 619.426 C 1321.32 622.9 1348.46 635.797 1354.6 637.687 C 1359.41 631.243 1368.45 613.289 1371.09 605.391 C 1364.45 601.091 1340.29 588.786 1333.11 586.523 z M 1262.37 1173.52 C 1255.81 1173.64 1248.59 1173.62 1242.12 1174.2 C 1242.01 1179.89 1242.11 1188.37 1241.52 1193.79 C 1239.34 1213.91 1248.2 1212.16 1263.3 1212.08 C 1270.51 1212.02 1277.66 1212.16 1284.8 1211.18 C 1285.17 1206.02 1285.36 1199.82 1285.91 1194.76 C 1288.4 1172.03 1283.39 1172.66 1262.37 1173.52 z M 746.377 1613.52 C 743.715 1604.67 732.476 1583.59 726.344 1577.08 L 724.17 1576.84 C 712.793 1581.67 691.082 1589.27 681.814 1594.13 C 689.488 1607.65 696.984 1622.68 704.574 1635.66 C 716.781 1629.94 734.457 1620.45 746.377 1613.52 z M 1649.89 1048.5 C 1654.46 1042.35 1667.91 1021.33 1666.22 1013.85 C 1664.27 1005.2 1636.52 995.728 1628.34 993.71 C 1621.6 1005.88 1615.84 1016.65 1609.9 1029.25 C 1615.94 1033.71 1643.05 1049.51 1649.89 1048.5 z M 261.148 791.994 C 274.528 786.764 285.548 780.341 298.035 773.378 C 294.975 764.878 286.255 748.191 279.608 742.182 C 267.831 747.497 254.1 755.938 242.468 762.314 C 246.201 768.955 256.386 788.234 261.148 791.994 z M 1280.87 617.833 C 1288.14 613.956 1285.41 605.585 1286.33 598.557 C 1290.69 565.322 1269.04 575.247 1243.67 575.456 C 1241.88 576.283 1239.4 577.183 1239.53 579.563 C 1239.99 587.894 1233.77 617.525 1246.62 618.075 C 1257.64 618.546 1270.19 618.5 1280.87 617.833 z M 1326.01 1397.79 C 1326.56 1393.94 1327.02 1392.83 1325.61 1389.17 C 1322.98 1385.87 1321.23 1385.64 1317.12 1384.02 C 1316.8 1388.27 1315.85 1394.04 1317.39 1397.77 C 1320.63 1400.05 1322.24 1399.26 1326.01 1397.79 z M 1363.19 527.129 C 1357.39 536.657 1350.77 547.015 1345.63 556.814 C 1358.96 563.987 1371.56 570.719 1385.8 576.089 C 1393.01 567.285 1397.99 555.499 1402.42 545.028 C 1391.59 539.72 1374.11 530.538 1363.19 527.129 z M 1284.91 1252.46 C 1271.99 1252.01 1255.1 1251.3 1242.33 1251.7 C 1237.99 1294.59 1242.42 1289.8 1283.76 1287.53 C 1287.46 1281.76 1285.25 1260.19 1284.91 1252.46 z M 810.142 1251.14 C 808.408 1257.32 807.956 1282.48 809.473 1288.63 C 813.208 1291.88 844.3 1290.4 851.226 1289.7 C 854.804 1285.74 852.948 1259.16 852.712 1251.66 C 839.736 1250.64 823.351 1250.87 810.142 1251.14 z M 340.822 946.791 C 344.765 954.923 355.952 979.106 362.345 983.741 C 375.364 978.772 388.669 971.301 401.455 965.148 C 399.048 958.553 385.513 930.932 381.171 927.137 L 379.668 926.849 C 366.671 933.4 353.722 940.048 340.822 946.791 z M 699.425 642.121 C 710.013 636.926 727.094 629.14 736.747 623.371 C 735.156 616.326 724.566 590.939 717.741 586.313 C 716.941 585.772 714.079 585.973 712.976 586.031 C 699.437 590.614 687.299 597.32 675.685 605.653 C 679.675 615.664 688.231 634.556 695.62 641.964 C 698.23 642.762 696.982 642.886 699.425 642.121 z M 711.384 671.131 C 715.188 680.46 723.147 700.952 729.929 707.119 C 733.63 708.16 732.552 707.802 736.836 706.586 C 745.243 702.622 763.639 694.991 769.35 688.741 C 771.674 682.226 757.367 657.891 751.467 654.318 C 749.066 654.075 748.344 653.886 745.985 654.025 C 734.299 658.988 722.104 664.323 711.384 671.131 z M 1507.57 1218.72 C 1515.78 1224.64 1536.67 1236.26 1546.16 1238.47 L 1547.87 1237.86 C 1553.16 1229.4 1563.56 1212.9 1565.12 1203.57 C 1563.57 1198.52 1553.67 1196 1548.92 1193.37 C 1541.07 1189.02 1533.9 1183.7 1524.82 1182.67 C 1518.03 1194.07 1511.21 1205.86 1507.57 1218.72 z M 819.53 796.468 C 815.681 796.68 813.559 796.329 810.639 798.753 C 805.528 807.286 809.036 815.342 808.545 824.27 C 807.655 840.436 809.232 840.388 825.028 840.511 C 831.969 840.574 838.907 840.119 845.25 840.23 C 850.363 839.669 848.935 840.501 852.708 837.742 C 857.037 829.996 854.847 807.249 854.502 797.193 C 842.849 796.777 831.19 796.535 819.53 796.468 z M 1419.89 1376.58 C 1415.49 1382.62 1403.52 1403.51 1403.04 1410.4 C 1406.53 1416.05 1435.62 1432.17 1441.64 1430.42 C 1446.77 1423.82 1458.85 1404.33 1459.71 1396.59 C 1456.19 1390.75 1427.12 1377.63 1419.89 1376.58 z M 815.093 576.212 C 812.276 578.637 811.096 579.356 811.074 583.867 C 811.038 591.119 808.807 612.286 813.128 618.016 C 820.127 620.629 843.579 620.036 851.756 619.435 C 855.32 616.375 855.815 614.48 855.911 609.584 C 856.056 602.157 857.812 583.426 854.05 577.502 C 846.939 574.296 823.926 575.77 815.093 576.212 z M 1745.16 776.272 C 1750.45 780.152 1779.11 795.355 1784.27 794.401 C 1790.66 785.753 1800.82 767.973 1804.39 757.788 C 1797.73 753.705 1771.54 742 1763.73 739.179 C 1756.48 751.156 1749.56 762.879 1745.16 776.272 z M 1732.54 800.493 C 1724.4 811.03 1717.65 824.48 1713.03 836.946 C 1721.34 843.098 1742.58 854.481 1752.7 855.319 C 1759.67 845.993 1767.34 829.937 1771.38 818.938 C 1758.9 811.848 1745.92 805.683 1732.54 800.493 z M 475.969 1202.32 C 479.023 1208.86 491.282 1237.32 496.334 1240.18 C 503.527 1236.96 530.98 1225.97 533.548 1221.08 C 533.087 1213.98 519.837 1184.3 514.125 1183.83 C 502.418 1189.16 486.632 1195.84 475.969 1202.32 z M 1472.44 1283.23 C 1478.34 1287.09 1507.11 1304.1 1512.41 1302.54 C 1517.82 1296.15 1528.8 1277.27 1530.36 1269.26 C 1528.4 1263.39 1497.55 1249.92 1490.56 1247.46 C 1483.22 1259.29 1476.73 1269.77 1472.44 1283.23 z M 1246.55 1553.24 C 1236.56 1557.55 1240.48 1569.49 1239.4 1578.94 C 1238.89 1583.31 1239.28 1595.81 1245.12 1595.94 C 1256.94 1597.02 1269.35 1596.35 1281.25 1596.15 C 1282.68 1595.65 1283.79 1595.64 1284.23 1594.48 C 1286.74 1587.82 1286.51 1560.86 1284.69 1555.08 C 1279.6 1551.28 1254.47 1552.99 1246.55 1553.24 z M 830.952 1767.96 C 816.613 1774.24 801.308 1780.65 787.211 1787.29 C 792.373 1797.38 800.424 1814.94 807.684 1822.84 C 815.919 1819.75 824.248 1815.47 831.292 1811.76 C 851.958 1800.89 852.197 1800.81 839.409 1781.22 C 837.32 1778.02 834.038 1770.37 830.952 1767.96 z M 1384.16 1442.46 C 1379.29 1451.39 1368.34 1470.48 1365.21 1479.43 C 1371.74 1483.98 1399.37 1499.7 1406.04 1497.76 C 1411.2 1488.91 1421.78 1470.03 1425.44 1461.05 C 1415.4 1456.01 1394.41 1444.99 1384.16 1442.46 z M 1241.07 499.282 C 1237.77 504.916 1238.12 532.346 1239.46 537.617 C 1244.96 544.429 1274.93 542.801 1283.86 541.593 C 1287.26 537.728 1287.06 505.081 1283.83 500.837 C 1276.25 498.018 1250.16 498.843 1241.07 499.282 z M 814.974 500.371 C 812.9 502.017 811.251 502.791 811.134 505.988 C 810.815 514.683 808.552 535.976 812.846 543.271 C 819.463 545.625 844.075 544.345 852.251 544.171 L 854.84 543.582 C 857.369 538.197 856.532 507.82 855.741 500.717 C 843.438 499.489 827.416 499.876 814.974 500.371 z M 855.743 468.452 C 857.092 459.157 857.476 433.273 856.522 423.851 C 843.698 423.469 824.648 423.146 812.035 424.196 C 810.335 432.516 810.844 459.989 812.14 468.148 C 821.652 469.16 846.607 469.814 855.743 468.452 z M 1493.37 270.396 C 1489.32 278.103 1478.26 295.317 1479.51 302.097 C 1483.5 308.807 1512.44 322.645 1521.11 327.364 C 1521.63 327.131 1522.25 327.013 1522.63 326.589 C 1527.52 318.194 1536.89 302.647 1540.33 294.126 C 1529.56 286.253 1505.89 274.852 1493.37 270.396 z M 527.307 325.571 C 538.53 321.823 562.356 309.711 572.042 302.446 C 569.024 296.477 556.514 270.249 552.649 266.882 L 550.846 266.779 C 538.788 273.059 517.703 284.311 506.822 291.877 C 509.471 296.718 523.454 323.864 525.978 325.667 L 527.307 325.571 z M 1246.11 420.434 C 1244.74 420.746 1241.45 421.092 1240.85 422.301 C 1237.22 429.728 1237.34 457.467 1240.91 463.566 C 1247.65 466.269 1271.65 465.144 1280.01 465.051 C 1281.39 464.561 1284.24 464.016 1284.8 462.633 C 1287.36 456.227 1286.22 447.427 1286.4 440.853 C 1287.13 414.885 1282.55 420.422 1260.38 420.057 C 1256.18 419.988 1250.61 420.255 1246.11 420.434 z M 413.62 990.921 C 400.194 996.771 387.612 1003.03 374.446 1009.41 C 378.988 1020.2 387.167 1038.44 394.82 1047.29 L 396.455 1047.74 C 407.656 1043.38 426.293 1034.88 436.175 1027.85 C 433.363 1021.5 420.257 993.766 415.624 990.836 L 413.62 990.921 z M 821.001 343.483 L 811.266 344.372 C 811.028 358.878 810.563 375.1 811.121 389.584 C 823.324 391.628 835.828 391.11 848.25 391.1 C 851.45 391.068 853.331 391.436 855.888 389.59 C 858.263 383.887 857.51 350.69 856.763 343.702 C 844.826 343.179 832.947 343.391 821.001 343.483 z M 813.447 263.045 C 809.843 269.373 809.641 304.071 812.691 308.739 C 819.34 310.873 847.987 310.747 855.738 310.354 C 857.645 303.791 858.264 271.528 856.693 264.864 C 853.109 260.873 820.673 262.864 813.447 263.045 z" fill="rgb(42,42,42)" transform="translate(0,0)"></path>
<path d="M 895.709 450.265 C 911.376 449.135 934.597 449.713 950.675 449.753 L 1042.11 450.055 L 1127.73 450.71 C 1145.58 450.878 1166.51 450.468 1183.94 452.351 C 1188.35 454.984 1192.41 458.197 1194.27 463.172 C 1198.32 474.009 1196.93 647.912 1195.95 668.398 C 1195.73 672.886 1195.54 677.433 1193.55 681.536 C 1189.86 689.107 1182.9 692.946 1175.31 695.729 C 1164.1 697.453 1151.46 696.948 1139.92 697.09 C 1125.96 697.329 1111.99 697.676 1098.03 698.133 C 1056.41 699.135 1014.77 699.698 973.132 699.822 C 953.97 699.964 906.194 702.249 889.893 697.61 C 877.396 687.451 881.188 663.247 881.16 647.82 L 880.989 585.056 L 880.657 508.362 C 880.649 488.63 875.028 459.211 895.709 450.265 z M 898.826 467.082 C 897.24 537.387 898.841 612.135 898.885 682.932 C 906.936 683.479 913.669 683.658 921.75 683.69 C 973.233 684.398 1025.78 684.024 1077.11 685.391 L 1140.52 687.53 C 1190.47 688.962 1186.59 689.639 1186.13 639.365 L 1185.78 589.159 C 1185.53 553.681 1185.53 518.078 1185.23 482.59 C 1185.09 466.715 1182.37 464.505 1167.1 464.493 C 1079.29 465.041 986.442 464.589 898.826 467.082 z" fill="rgb(42,42,42)" transform="translate(0,0)"></path>
<path d="M 901.809 195.38 C 944.036 194.052 986.552 196.628 1028.8 196.999 C 1050.2 197.186 1169.12 194.978 1178.94 198.333 C 1184.41 200.203 1189.62 204.916 1192.05 210.16 C 1194.4 215.246 1195.24 221.292 1195.53 226.856 C 1197.18 258.594 1195.4 291.274 1195.26 323.14 C 1195.14 351.355 1196.61 380.041 1195.63 408.174 C 1195.49 412.225 1194.91 416.304 1193.47 420.114 C 1189.75 429.993 1182.37 434.524 1173.23 438.588 C 1163.8 440.533 1135 440.233 1123.63 440.427 C 1081.1 441.1 1038.57 441.245 996.044 440.86 L 936.835 440.728 C 925.79 440.733 914.66 440.844 903.641 440.491 C 894.464 440.197 882.525 430.249 881.796 420.853 C 879.92 396.668 880.969 371.525 881.04 347.175 L 881.309 264.665 C 881.394 249.373 881.225 234.031 881.977 218.761 C 882.759 202.875 885.971 197.726 901.809 195.38 z M 898.946 211.054 L 899.396 344.749 C 899.375 367.902 898.288 401.69 899.762 424.143 C 917.517 425.928 960.254 424.686 979.656 424.642 C 1032.98 424.304 1086.3 424.494 1139.62 425.212 C 1145.45 425.525 1151.47 425.923 1157.21 426.106 C 1165.34 426.365 1175.27 427.734 1182.23 422.608 C 1185.1 420.497 1185.97 410.58 1186.4 406.857 C 1187.05 347.969 1186.38 289.009 1186.25 230.104 C 1186.24 224.869 1185.49 216.583 1181.28 212.733 C 1179.07 210.958 1170.25 210.048 1167.05 210.013 C 1141.34 209.728 1115.36 210.004 1089.65 210.119 L 949.498 210.506 L 898.946 211.054 z" fill="rgb(42,42,42)" transform="translate(0,0)"></path>
<path d="M 1027.3 875.049 C 1102.76 871.91 1166.46 930.563 1169.55 1006.02 C 1172.64 1081.48 1113.94 1145.14 1038.48 1148.18 C 963.092 1151.21 899.505 1092.58 896.421 1017.2 C 893.336 941.812 951.92 878.185 1027.3 875.049 z M 1047.49 1133.41 C 1115.36 1127.9 1165.96 1068.5 1160.62 1000.62 C 1155.28 932.74 1096.01 881.987 1028.11 887.157 C 959.98 892.346 909.008 951.873 914.368 1019.99 C 919.728 1088.12 979.383 1138.94 1047.49 1133.41 z" fill="rgb(42,42,42)" transform="translate(0,0)"></path>
<path d="M 604.921 606.238 C 619.22 605.489 624.459 616.609 631.078 628.005 C 661.127 679.743 687.151 733.731 717.706 785.22 C 722.627 794.666 731.296 806.637 723.224 816.938 C 710.401 833.303 683.497 844.776 665.12 854.709 L 582.568 899.056 C 562.646 909.71 542.781 920.471 522.975 931.338 C 509.925 938.464 483.948 953.365 470.487 956.738 C 461.324 956.889 457.187 952.133 452.662 944.538 C 446.486 934.175 440.847 923.434 434.898 912.921 L 389.986 832.274 C 376.336 807.816 360.229 780.657 348.158 755.586 C 339.994 738.629 394.381 715.865 406.962 709.268 L 486.443 667.467 C 514.621 652.543 542.259 636.723 570.372 621.691 C 581.137 615.935 593.037 608.971 604.921 606.238 z M 359.476 749.776 C 365.071 761.162 385.155 795.042 391.311 805.441 C 400.178 820.421 462.649 938.107 466.029 939.623 L 468.425 938.921 L 644.154 844.873 C 657.57 837.687 671.042 830.603 684.567 823.622 C 694.876 818.313 706.388 813.168 715.678 806.374 C 705.084 782.14 679.51 740.178 665.868 715.378 C 655.93 697.369 646.161 679.267 636.563 661.074 C 630.472 649.356 624.668 637.463 618.326 625.886 C 614.472 618.849 612.649 616.308 604.386 615.962 C 534.611 656.727 462.366 693.596 391.265 731.946 C 380.542 737.73 369.893 743.434 359.476 749.776 z" fill="rgb(42,42,42)" transform="translate(0,0)"></path>
<path d="M 483.761 380.278 C 493.923 380.93 499.332 384.345 504.721 393.287 C 511.674 404.824 517.743 417.218 524.046 429.158 L 553.878 484.826 C 562.998 501.943 572.231 518.998 581.578 535.991 C 589.024 549.636 597.67 563.946 602.495 578.649 C 604.857 585.847 596.166 594.278 590.859 597.894 C 573.176 609.94 554.152 620.878 535.499 631.262 C 509.666 645.657 483.692 659.799 457.581 673.685 C 436.846 684.911 366.292 725.147 345.577 729.509 C 341.496 729.048 336.794 728.849 333.278 726.541 C 330.262 724.561 328.271 721.384 326.33 718.402 C 312.603 697.298 228.644 549.633 225.357 534.367 C 224.212 529.051 225.037 524.041 228.165 519.529 C 230.673 515.911 234.372 513.348 238.105 511.124 C 247.39 505.594 257.221 500.849 266.714 495.668 L 347.255 452.173 L 432.479 405.852 C 443.358 399.979 473.456 382.261 483.761 380.278 z M 236.869 530.345 C 239.237 536.253 268.536 585.955 271.89 591.317 C 281.936 607.377 334.585 708.721 342.262 715.843 C 415.371 680.967 485.849 635.863 559.139 600.615 C 568.003 596.352 583.162 588.375 590.741 582.421 C 585.338 567.459 493.29 395.933 489.764 393.792 C 488.662 393.123 487.093 392.916 485.837 392.731 C 445.063 415.945 404.11 438.844 362.982 461.426 C 321.758 483.909 277.635 507.067 236.869 530.345 z" fill="rgb(42,42,42)" transform="translate(0,0)"></path>
<path d="M 1563.95 382.318 C 1568.99 382.397 1573.45 383.92 1577.89 386.192 C 1606.46 400.837 1634.17 417.172 1662.71 431.941 C 1696.13 449.093 1729.34 466.669 1762.31 484.666 C 1778.14 493.17 1795.21 501.433 1810.2 511.123 C 1820.25 517.62 1821.87 535.032 1816.78 545.418 C 1790.29 599.423 1757.28 649.87 1729.11 702.996 C 1721.57 717.208 1711.99 725.258 1695.42 726.061 C 1672.19 719.879 1636.76 697.689 1615.32 685.893 C 1588.72 671.44 1561.99 657.225 1535.14 643.251 C 1514.78 632.944 1494.33 622.807 1473.79 612.842 C 1456.36 604.282 1427.04 595.702 1439.37 570.224 C 1446.34 555.832 1454.84 542.247 1462.94 528.465 L 1500.33 464.455 C 1508.62 450.315 1516.79 436.105 1524.83 421.827 C 1536.13 401.808 1539.49 386.183 1563.95 382.318 z M 1455.2 579.749 C 1515.7 614.064 1578.16 645.824 1639.11 679.356 C 1661.21 691.52 1685.47 703.744 1707.06 716.734 C 1717.26 710.874 1726.1 691.001 1732.01 680.167 L 1759.66 629.419 L 1785.84 581.681 C 1792.58 569.64 1809.94 542.13 1811.01 530.099 C 1803.54 523.445 1780.77 512.28 1771.24 507.033 C 1731.05 484.798 1690.51 463.195 1649.63 442.234 C 1623.25 428.462 1597.37 413.73 1570.89 400.138 C 1567.01 398.145 1564.86 397.481 1560.6 397.855 C 1558.3 399.067 1554.45 401.048 1553.14 403.358 C 1524.86 453.191 1496.47 503.015 1468.35 552.94 C 1464.08 560.517 1458.03 571.719 1455.2 579.749 z" fill="rgb(42,42,42)" transform="translate(0,0)"></path>
<path d="M 896.07 1353.22 C 898.883 1350.78 1009.48 1352 1023.66 1352.16 C 1019.96 1352.49 1016.94 1352.66 1013.37 1353.77 C 1024.52 1354.09 1035.04 1353.96 1046.18 1353.79 C 1073.7 1354.57 1101.1 1353.51 1128.96 1354.11 C 1145.14 1354.46 1176.35 1350.9 1189.33 1362.27 C 1197.94 1369.8 1199.61 1381.07 1199.63 1392.08 C 1199.73 1454.24 1200.96 1516.85 1197.53 1578.91 C 1196.91 1590.09 1184.89 1605.05 1173.12 1606.33 C 1152.52 1608.58 1131.06 1607.96 1110.17 1608.38 L 957.008 1610.85 C 949.284 1610.97 935.09 1610.78 928.287 1611.17 C 881.216 1613.88 877.731 1603.08 879.074 1558.46 C 879.429 1546.66 879.108 1528.46 879.108 1515.65 L 878.666 1386.84 C 878.713 1378.72 879.776 1366.16 886.742 1360.71 C 890.107 1358.08 893.076 1356.41 896.07 1353.22 z M 953.878 1593.55 L 1103.54 1596.05 C 1126.25 1596.38 1149.02 1597.05 1171.72 1596.8 C 1187.12 1596.63 1187.49 1581.89 1187.46 1570.19 L 1186.13 1446.37 C 1186.04 1424.67 1186.47 1402.87 1185.8 1381.21 C 1185.4 1368.3 1168.11 1369.78 1159.19 1369.85 C 1149.81 1369.92 1140.35 1370.26 1130.98 1370.5 C 1080.09 1371.13 1029.2 1371.32 978.311 1371.07 C 967.689 1371.06 903.023 1369.44 898.659 1373.81 C 894.823 1385.85 898.334 1459.73 897.603 1478.5 C 896.991 1494.19 895.39 1581.11 899.4 1590.42 C 907.506 1595.1 942.033 1593.29 953.878 1593.55 z" fill="rgb(42,42,42)" transform="translate(0,0)"></path>
<path d="M 896.07 1353.22 C 898.883 1350.78 1009.48 1352 1023.66 1352.16 C 1019.96 1352.49 1016.94 1352.66 1013.37 1353.77 C 974.462 1353.88 935.558 1354.33 896.659 1355.11 L 896.07 1353.22 z" fill="rgb(202,202,202)" transform="translate(0,0)"></path>
<path d="M 1335.67 830.519 L 1334.41 829.189 C 1326.42 820.828 1315.57 813.268 1316.67 800.169 C 1318.17 782.23 1333.5 761.794 1342 746.453 C 1360.22 713.56 1377.99 681.035 1396.72 648.484 C 1405.17 634.021 1412.25 617.4 1424.11 605.452 C 1429.91 599.61 1439.37 604.74 1445.87 607.028 C 1459.6 613.441 1472.93 620.988 1486.54 627.781 C 1526.24 647.224 1565.44 667.698 1604.08 689.183 L 1655.41 717.348 C 1677.39 729.44 1707.14 739.649 1690.5 770.911 C 1662.13 824.235 1632.32 876.85 1603.3 929.825 C 1582.4 968.015 1528.78 931.32 1502.34 917.452 C 1482.3 906.843 1462.18 896.381 1441.98 886.067 C 1436.37 883.217 1420.28 874.617 1414.86 873.653 L 1414.82 875.233 C 1414.24 875.216 1337.77 834.639 1333.45 831.731 L 1335.67 830.519 z M 1582.86 938.969 C 1595 933.651 1604.64 909.774 1611.15 897.571 L 1644.42 835.058 L 1670.06 787.317 C 1673.53 780.871 1687.57 758.75 1683.57 752.694 C 1676.77 742.405 1654.04 733.008 1642.46 726.774 L 1572.73 688.968 C 1543.41 673.385 1513.95 658.048 1484.37 642.958 C 1469.21 635.034 1449.62 623.562 1434.65 617.043 C 1424.78 633.831 1333.03 796.241 1333.42 801.485 C 1333.91 808.005 1348.05 814.82 1353.12 817.595 C 1409.36 847.732 1465.81 877.464 1522.48 906.787 C 1534.67 913.137 1546.72 919.749 1558.62 926.62 C 1565.69 930.768 1575.12 937.942 1582.86 938.969 z" fill="rgb(42,42,42)" transform="translate(0,0)"></path>
<path d="M 1335.67 830.519 C 1338.05 830.866 1405.69 867.231 1414.56 872.059 L 1415.14 873.123 L 1414.86 873.653 L 1414.82 875.233 C 1414.24 875.216 1337.77 834.639 1333.45 831.731 L 1335.67 830.519 z" fill="rgb(246,246,246)" transform="translate(0,0)"></path>
<path d="M 753.588 1398.49 L 754.18 1400.18 C 743.272 1406.2 733.047 1412.12 721.226 1416.28 L 720.18 1414.47 L 718.957 1413.48 C 728.758 1412.03 744.238 1403.24 753.588 1398.49 z" fill="rgb(246,246,246)" transform="translate(0,0)"></path>
<path d="M 753.588 1398.49 C 761.008 1393.72 770.275 1390.82 778.369 1386.53 C 773.096 1390.34 760.395 1397.83 754.18 1400.18 L 753.588 1398.49 z" fill="rgb(118,118,121)" transform="translate(0,0)"></path>
<path d="M 1023.66 1352.16 C 1029.31 1351.7 1031.86 1351.34 1037.6 1352.17 L 1046.18 1353.79 C 1035.04 1353.96 1024.52 1354.09 1013.37 1353.77 C 1016.94 1352.66 1019.96 1352.49 1023.66 1352.16 z" fill="rgb(118,118,121)" fill-opacity="0.827451" transform="translate(0,0)"></path></svg>